<svg xmlns="http://www.w3.org/2000/svg" xmlns:svg="http://www.w3.org/2000/svg" xmlns:xlink="http://www.w3.org/1999/xlink" id="svg2913" width="48" height="48" version="1.1"><defs id="defs3"><linearGradient id="linearGradient6925"><stop style="stop-color:#204a87;stop-opacity:1" id="stop6927" offset="0"/><stop style="stop-color:#204a87;stop-opacity:0" id="stop6929" offset="1"/></linearGradient><linearGradient id="linearGradient6901"><stop style="stop-color:#3465a4;stop-opacity:1" id="stop6903" offset="0"/><stop style="stop-color:#3465a4;stop-opacity:0" id="stop6905" offset="1"/></linearGradient><linearGradient id="linearGradient4991"><stop style="stop-color:#fff;stop-opacity:1" id="stop4993" offset="0"/><stop style="stop-color:#fff;stop-opacity:0" id="stop4995" offset="1"/></linearGradient><radialGradient id="radialGradient4997" cx="23.447" cy="6.458" r="19.063" fx="23.447" fy="6.458" gradientTransform="matrix(-1.314471,-0.01006312,-0.01022964,1.336221,46.59608,-5.784887)" gradientUnits="userSpaceOnUse" xlink:href="#linearGradient4991"/><linearGradient id="linearGradient2187"><stop id="stop2189" offset="0" style="stop-color:#fff;stop-opacity:1"/><stop id="stop2191" offset="1" style="stop-color:#fff;stop-opacity:0"/></linearGradient><linearGradient id="linearGradient1764" x1="33.06" x2="12.624" y1="27.394" y2="12.584" gradientTransform="matrix(0.914114,0,0,0.914114,-3.493698,-3.581902)" gradientUnits="userSpaceOnUse" xlink:href="#linearGradient2187"/><linearGradient id="linearGradient8662"><stop style="stop-color:#000;stop-opacity:1" id="stop8664" offset="0"/><stop style="stop-color:#000;stop-opacity:0" id="stop8666" offset="1"/></linearGradient><radialGradient id="radialGradient8668" cx="24.837" cy="36.421" r="15.645" fx="24.837" fy="36.421" gradientTransform="matrix(1,0,0,0.536723,0,16.87306)" gradientUnits="userSpaceOnUse" xlink:href="#linearGradient8662"/><linearGradient id="linearGradient2555"><stop id="stop2557" offset="0" style="stop-color:#fff;stop-opacity:1"/><stop style="stop-color:#e6e6e6;stop-opacity:1" id="stop2561" offset=".5"/><stop id="stop2563" offset=".75" style="stop-color:#fff;stop-opacity:1"/><stop style="stop-color:#e1e1e1;stop-opacity:1" id="stop2565" offset=".842"/><stop id="stop2559" offset="1" style="stop-color:#fff;stop-opacity:1"/></linearGradient><linearGradient id="linearGradient4274"><stop style="stop-color:#fff;stop-opacity:.25490198" id="stop4276" offset="0"/><stop style="stop-color:#fff;stop-opacity:1" id="stop4278" offset="1"/></linearGradient><linearGradient id="linearGradient4264"><stop id="stop4266" offset="0" style="stop-color:#000;stop-opacity:1"/><stop id="stop4268" offset="1" style="stop-color:#000;stop-opacity:0"/></linearGradient><linearGradient id="linearGradient4254"><stop id="stop4256" offset="0" style="stop-color:#fff;stop-opacity:1"/><stop id="stop4258" offset="1" style="stop-color:#fff;stop-opacity:0"/></linearGradient><linearGradient id="linearGradient4244"><stop id="stop4246" offset="0" style="stop-color:#e4e4e4;stop-opacity:1"/><stop id="stop4248" offset="1" style="stop-color:#d3d3d3;stop-opacity:1"/></linearGradient><linearGradient id="linearGradient4236"><stop id="stop4238" offset="0" style="stop-color:#eee;stop-opacity:1"/><stop id="stop4240" offset="1" style="stop-color:#eee;stop-opacity:0"/></linearGradient><linearGradient id="linearGradient4228"><stop id="stop4230" offset="0" style="stop-color:#bbb;stop-opacity:1"/><stop id="stop4232" offset="1" style="stop-color:#9f9f9f;stop-opacity:1"/></linearGradient><linearGradient id="linearGradient4184"><stop id="stop4186" offset="0" style="stop-color:#838383;stop-opacity:1"/><stop id="stop4188" offset="1" style="stop-color:#bbb;stop-opacity:0"/></linearGradient><linearGradient id="linearGradient4209" x1="7.063" x2="24.688" y1="35.281" y2="35.281" gradientTransform="translate(1.170493,2.92418)" gradientUnits="userSpaceOnUse" xlink:href="#linearGradient4184"/><linearGradient id="linearGradient4234" x1="7.605" x2="36.183" y1="28.481" y2="40.944" gradientTransform="translate(0.375,4.25)" gradientUnits="userSpaceOnUse" xlink:href="#linearGradient4228"/><linearGradient id="linearGradient4242" x1="12.277" x2="12.222" y1="37.206" y2="33.759" gradientTransform="translate(0.375,4.25)" gradientUnits="userSpaceOnUse" xlink:href="#linearGradient4236"/><radialGradient id="radialGradient4250" cx="15.571" cy="2.959" r="20.936" fx="15.571" fy="2.959" gradientTransform="matrix(1.286242,0.781698,-0.710782,1.169552,-1.979348,-0.62686)" gradientUnits="userSpaceOnUse" xlink:href="#linearGradient4244"/><linearGradient id="linearGradient4260" x1="12.378" x2="44.096" y1="4.433" y2="47.621" gradientTransform="translate(0.375,4.25)" gradientUnits="userSpaceOnUse" xlink:href="#linearGradient4254"/><radialGradient id="radialGradient4270" cx="23.202" cy="27.096" r="23.555" fx="23.202" fy="27.096" gradientTransform="matrix(1,0,0,0.651032,0,9.455693)" gradientUnits="userSpaceOnUse" xlink:href="#linearGradient4264"/><linearGradient id="linearGradient4272" x1="23.688" x2="23.688" y1="11.319" y2="26.357" gradientTransform="translate(0.375,4.25)" gradientUnits="userSpaceOnUse" xlink:href="#linearGradient4274"/><linearGradient id="linearGradient2553" x1="33.431" x2="21.748" y1="31.965" y2="11.781" gradientUnits="userSpaceOnUse" xlink:href="#linearGradient2555"/><linearGradient id="linearGradient6907" x1="14.752" x2="8.895" y1="15.868" y2="16.743" gradientTransform="translate(0.375,-0.875)" gradientUnits="userSpaceOnUse" xlink:href="#linearGradient6901"/><linearGradient id="linearGradient6931" x1="12.25" x2="7" y1="18.25" y2="21.118" gradientTransform="translate(0.375,-0.875)" gradientUnits="userSpaceOnUse" xlink:href="#linearGradient6925"/></defs><metadata id="metadata4"/><g id="layer2"><path id="path4262" d="m 46.757435,27.096155 a 23.555494,15.335379 0 1 1 -47.11098877,0 23.555494,15.335379 0 1 1 47.11098877,0 z" transform="matrix(1.052533,0,0,0.363113,-0.136757,31.11986)" style="opacity:.56000001;color:#000;fill:url(#radialGradient4270);fill-opacity:1;fill-rule:evenodd;stroke:none;stroke-width:1;marker:none;visibility:visible;display:inline;overflow:visible"/><path id="path4196" d="m 11.66069,12.212628 c -0.625,0 -1.031249,0.29018 -1.281248,0.843753 -10e-7,0 -6.4687505,17.103557 -6.4687505,17.103557 0,0 -0.25,0.671559 -0.25,1.78125 0,0 0,9.649968 0,9.649968 0,1.082613 0.6577855,1.625002 1.65625,1.625 l 38.5624985,0 c 0.984853,0 1.59375,-0.71818 1.59375,-1.84375 l 0,-9.649968 c 0,0 0.105963,-0.770423 -0.09375,-1.3125 L 38.66069,13.212631 c -0.184525,-0.511906 -0.636905,-0.988098 -1.125,-1.000003 l -25.875,0 z" style="fill:none;stroke:#535353;stroke-width:2;stroke-linecap:round;stroke-linejoin:round;stroke-miterlimit:4;stroke-opacity:1;stroke-dasharray:none"/><path id="path4170" d="m 3.6485915,31.246812 0.7646021,-0.692215 37.6096894,0.0625 3.462407,0.317298 0,10.438532 c 0,1.125569 -0.607018,1.843331 -1.591871,1.843331 l -38.5829876,0 c -0.9984647,0 -1.6618399,-0.542051 -1.6618399,-1.624664 l 0,-10.344782 z" style="fill:url(#linearGradient4234);fill-opacity:1;fill-rule:evenodd;stroke:none"/><path id="path3093" d="m 3.9240842,30.164404 c -0.7142857,1.464286 -6.156e-4,2.392857 1.0357143,2.392857 0,0 38.9999985,0 38.9999985,0 1.119047,-0.02381 1.845238,-1.011905 1.428571,-2.142858 L 38.674082,13.203704 C 38.489558,12.691798 38.01932,12.215606 37.531225,12.203701 l -25.857142,0 c -0.625,0 -1.035714,0.303573 -1.285713,0.857146 0,0 -6.4642858,17.103557 -6.4642858,17.103557 z" style="fill:url(#radialGradient4250);fill-opacity:1;fill-rule:evenodd;stroke:none"/><rect id="rect4174" width="17.625" height="5.563" x="8.233" y="35.424" style="color:#000;fill:url(#linearGradient4209);fill-opacity:1;fill-rule:evenodd;stroke:none;stroke-width:2.40899992;marker:none;visibility:visible;display:inline;overflow:visible"/><path id="path4194" d="m 8.2329947,40.98668 c 0,0 0,-4.011485 0,-4.011485 1.8355273,3.179226 8.2964903,4.011485 12.9374973,4.011485 0,0 -12.9374973,0 -12.9374973,0 z" style="opacity:.81142853;fill:url(#linearGradient4242);fill-opacity:1;fill-rule:evenodd;stroke:none"/><path id="path4201" d="m 45.171162,29.878688 c 0.06352,1.249974 -0.414003,2.31584 -1.322116,2.34375 0,0 -38.1187164,-10e-7 -38.1187163,0 -1.2892319,0 -1.867736,-0.324947 -2.0840507,-0.868056 0.091761,0.944332 0.8258174,1.649306 2.0840507,1.649306 -1e-7,-10e-7 38.1187163,0 38.1187163,0 1.076007,-0.03307 1.752805,-1.424024 1.352164,-2.994791 l -0.03005,-0.130209 z" style="fill:#fff;fill-opacity:1;fill-rule:evenodd;stroke:none"/><path id="path4211" d="m 11.34375,14.40625 c -0.04608,0.200321 -0.1875,0.386797 -0.1875,0.59375 0,0.948605 0.59098,1.789474 1.34375,2.59375 0.240268,-0.154075 0.365117,-0.354408 0.625,-0.5 -0.940309,-0.816004 -1.553396,-1.716582 -1.78125,-2.6875 z m 26.65625,0 c -0.228727,0.969616 -0.842012,1.872426 -1.78125,2.6875 0.274144,0.153582 0.403988,0.36824 0.65625,0.53125 0.757262,-0.806656 1.3125,-1.673044 1.3125,-2.625 0,-0.206953 -0.141594,-0.393429 -0.1875,-0.59375 z m 2.1875,8.4375 c -0.613791,4.040111 -7.298613,7.25 -15.53125,7.25 -8.212254,1e-6 -14.8601499,-3.192786 -15.5,-7.21875 -0.032357,0.197132 -0.125,0.391882 -0.125,0.59375 3e-7,4.317947 6.989104,7.843751 15.625,7.84375 8.635896,0 15.656249,-3.525802 15.65625,-7.84375 0,-0.212924 -0.08905,-0.417356 -0.125,-0.625 z" style="opacity:.69142857;color:#000;fill:url(#linearGradient4272);fill-opacity:1;fill-rule:evenodd;stroke:none;stroke-width:2;marker:none;visibility:visible;display:inline;overflow:visible"/><path id="path4224" d="m 8.5736699,25.593554 a 1.3700194,1.016466 0 1 1 -2.7400389,0 1.3700194,1.016466 0 1 1 2.7400389,0 z" transform="translate(0.46338843,4.42678)" style="color:#000;fill:#fff;fill-opacity:.45762706;fill-rule:evenodd;stroke:none;stroke-width:2;marker:none;visibility:visible;display:inline;overflow:visible"/><path style="color:#000;fill:#fff;fill-opacity:.45762706;fill-rule:evenodd;stroke:none;stroke-width:2;marker:none;visibility:visible;display:inline;overflow:visible" id="path4226" d="m 8.5736699,25.593554 a 1.3700194,1.016466 0 1 1 -2.7400389,0 1.3700194,1.016466 0 1 1 2.7400389,0 z" transform="translate(34.34205,4.33839)"/><path style="fill:none;stroke:url(#linearGradient4260);stroke-width:1.00000024;stroke-linecap:round;stroke-linejoin:round;stroke-miterlimit:4;stroke-opacity:1;stroke-dasharray:none" id="path4252" d="m 12.017515,12.665723 c -0.601692,0 -0.992791,0.279358 -1.233466,0.812287 -10e-7,0 -6.4150149,16.590722 -6.4150149,16.590722 0,0 -0.2406768,0.646515 -0.2406768,1.714823 0,0 0,9.290096 0,9.290096 0,1.35474 0.4440561,1.626899 1.5944841,1.626899 l 37.6869046,0 c 1.323126,0 1.534316,-0.316397 1.534316,-1.837492 l 0,-9.290096 c 0,0 0.10201,-0.741691 -0.09025,-1.263553 L 38.260616,13.503434 c -0.177643,-0.492817 -0.550652,-0.82625 -1.020545,-0.837711 l -25.222556,0 z"/><path style="fill:none;stroke:#fff;stroke-width:1.00000048px;stroke-linecap:square;stroke-linejoin:miter;stroke-opacity:.42372885" id="path4282" d="m 40.875,35.679166 0,5.020935"/><path id="path4284" d="m 38.875,35.738943 0,5.020935" style="fill:none;stroke:#fff;stroke-width:1.00000048px;stroke-linecap:square;stroke-linejoin:miter;stroke-opacity:.42372885"/><path style="fill:none;stroke:#fff;stroke-width:1.00000048px;stroke-linecap:square;stroke-linejoin:miter;stroke-opacity:.42372885" id="path4286" d="m 36.875,35.738943 0,5.020935"/><path id="path4288" d="m 34.875,35.738943 0,5.020935" style="fill:none;stroke:#fff;stroke-width:1.00000048px;stroke-linecap:square;stroke-linejoin:miter;stroke-opacity:.42372885"/><path style="fill:none;stroke:#fff;stroke-width:1.00000048px;stroke-linecap:square;stroke-linejoin:miter;stroke-opacity:.42372885" id="path4290" d="m 32.875,35.738943 0,5.020935"/><path id="path4292" d="m 30.875,35.738943 0,5.020935" style="fill:none;stroke:#fff;stroke-width:1.00000048px;stroke-linecap:square;stroke-linejoin:miter;stroke-opacity:.42372885"/><path id="path4294" d="m 39.875,35.729065 0,5.020935" style="opacity:.09714284;fill:none;stroke:#000;stroke-width:1.00000048px;stroke-linecap:square;stroke-linejoin:miter;stroke-opacity:1"/><path style="opacity:.09714284;fill:none;stroke:#000;stroke-width:1.00000048px;stroke-linecap:square;stroke-linejoin:miter;stroke-opacity:1" id="path4296" d="m 37.875,35.788842 0,5.020935"/><path id="path4298" d="m 35.875,35.788842 0,5.020935" style="opacity:.09714284;fill:none;stroke:#000;stroke-width:1.00000048px;stroke-linecap:square;stroke-linejoin:miter;stroke-opacity:1"/><path style="opacity:.09714284;fill:none;stroke:#000;stroke-width:1.00000048px;stroke-linecap:square;stroke-linejoin:miter;stroke-opacity:1" id="path4300" d="m 33.875,35.788842 0,5.020935"/><path id="path4302" d="m 31.875,35.788842 0,5.020935" style="opacity:.09714284;fill:none;stroke:#000;stroke-width:1.00000048px;stroke-linecap:square;stroke-linejoin:miter;stroke-opacity:1"/><path id="path4572" d="m 8.25,35.4375 0,5.53125 12.5625,0 L 8.59375,40.625 8.25,35.4375 z" style="opacity:.43999999;fill:#fff;fill-opacity:1;fill-rule:evenodd;stroke:none"/><path style="opacity:.20571427;color:#000;fill:url(#linearGradient2553);fill-opacity:1;fill-rule:evenodd;stroke:none;stroke-width:.93365198;marker:none;visibility:visible;display:inline;overflow:visible" id="path2545" d="m 39.875,19.5625 a 14.875,6.6875 0 1 1 -29.75,0 14.875,6.6875 0 1 1 29.75,0 z" transform="matrix(1.037815,0,0,1.060747,-1.257878,2.15537)"/></g><g id="layer1"><path id="path8660" d="m 40.481863,36.421127 a 15.644737,8.3968935 0 1 1 -31.2894745,0 15.644737,8.3968935 0 1 1 31.2894745,0 z" transform="matrix(1.13019,0,0,-0.759601,-3.534725,52.79054)" style="opacity:.14117647;color:#000;fill:url(#radialGradient8668);fill-opacity:1;fill-rule:evenodd;stroke:none;stroke-width:1;marker:none;visibility:visible;display:inline;overflow:visible"/><path style="color:#000;fill:url(#linearGradient6907);fill-opacity:1;fill-rule:nonzero;stroke:url(#linearGradient6931);stroke-width:.99999982;stroke-linecap:butt;stroke-linejoin:miter;stroke-miterlimit:4;stroke-opacity:1;stroke-dasharray:none;stroke-dashoffset:0;marker:none;visibility:visible;display:block;overflow:visible" id="path1432" d="M 3.5784501,24.960194 C 2.5479477,-6.260337 29.116616,-1.326115 28.957416,14.913689 l 7.312914,0 L 24.892652,27.899671 12.960426,14.913689 c 0,0 7.541433,0 7.541433,0 C 20.958921,3.944322 3.7842324,0.735035 3.5784501,24.960194 z"/><path id="path2177" d="M 8.0392103,8.229105 C 12.78138,-0.915031 28.497336,1.842544 28.136604,15.704393 l 6.317372,0 c 0,0 -9.565825,10.957376 -9.565825,10.957376 L 14.79168,15.704393 c 0,0 6.45664,0 6.45664,0 C 21.519975,4.129161 11.297265,4.659521 8.0392103,8.229105 z" style="opacity:.47159095;color:#000;fill:none;stroke:url(#linearGradient1764);stroke-width:.99999934;stroke-linecap:butt;stroke-linejoin:miter;stroke-miterlimit:10;stroke-opacity:1;stroke-dasharray:none;stroke-dashoffset:0;marker:none;visibility:visible;display:block;overflow:visible"/><path style="opacity:.49431817;color:#000;fill:url(#radialGradient4997);fill-opacity:1;fill-rule:nonzero;stroke:none;stroke-width:.9999997;marker:none;visibility:visible;display:inline;overflow:visible" id="path4989" d="m 35.142155,15.336613 -1.984176,2.545709 c -5.410032,-1.516293 -7.88615,2.729342 -15.673695,1.73179 l -3.861286,-4.409035 7.18647,0.08279 C 20.858219,3.441457 8.7193098,4.123966 5.4042663,12.752829 9.2122201,-2.136122 28.268316,-0.068588 28.65832,15.239112 l 6.483835,0.0975 z"/></g></svg>