<svg xmlns="http://www.w3.org/2000/svg" xmlns:svg="http://www.w3.org/2000/svg" xmlns:xlink="http://www.w3.org/1999/xlink" id="svg97" width="48" height="48" version="1.0"><metadata id="metadata3052"/><defs id="defs3"><radialGradient id="radialGradient5031" cx="605.714" cy="486.648" r="117.143" fx="605.714" fy="486.648" gradientTransform="matrix(-2.774389,0,0,1.969706,112.7623,-872.8854)" gradientUnits="userSpaceOnUse" xlink:href="#linearGradient5060"/><linearGradient id="linearGradient5060"><stop id="stop5062" offset="0" style="stop-color:#000;stop-opacity:1"/><stop id="stop5064" offset="1" style="stop-color:#000;stop-opacity:0"/></linearGradient><radialGradient id="radialGradient5029" cx="605.714" cy="486.648" r="117.143" fx="605.714" fy="486.648" gradientTransform="matrix(2.774389,0,0,1.969706,-1891.633,-872.8854)" gradientUnits="userSpaceOnUse" xlink:href="#linearGradient5060"/><linearGradient id="linearGradient5048"><stop id="stop5050" offset="0" style="stop-color:#000;stop-opacity:0"/><stop id="stop5056" offset=".5" style="stop-color:#000;stop-opacity:1"/><stop id="stop5052" offset="1" style="stop-color:#000;stop-opacity:0"/></linearGradient><linearGradient id="linearGradient5027" x1="302.857" x2="302.857" y1="366.648" y2="609.505" gradientTransform="matrix(2.774389,0,0,1.969706,-1892.179,-872.8854)" gradientUnits="userSpaceOnUse" xlink:href="#linearGradient5048"/><linearGradient id="linearGradient269"><stop id="stop270" offset="0" style="stop-color:#a3a3a3;stop-opacity:1"/><stop id="stop271" offset="1" style="stop-color:#4c4c4c;stop-opacity:1"/></linearGradient><radialGradient id="radialGradient8234" cx="8.824" cy="3.756" r="37.752" fx="8.824" fy="3.756" gradientTransform="matrix(0.968273,0,0,1.046686,44.36453,-17.00717)" gradientUnits="userSpaceOnUse" xlink:href="#linearGradient269"/><linearGradient id="linearGradient259"><stop id="stop260" offset="0" style="stop-color:#fafafa;stop-opacity:1"/><stop id="stop8238" offset=".5" style="stop-color:#a8a8a8;stop-opacity:1"/><stop id="stop261" offset="1" style="stop-color:#cdcdcd;stop-opacity:1"/></linearGradient><linearGradient id="linearGradient8236" x1="25.875" x2="25.25" y1="10.625" y2="30.875" gradientTransform="matrix(1,0,0,1.238806,0,-7.880597)" gradientUnits="userSpaceOnUse" xlink:href="#linearGradient259"/><linearGradient id="linearGradient13842"><stop id="stop13844" offset="0" style="stop-color:#000;stop-opacity:1"/><stop id="stop13846" offset="1" style="stop-color:#000;stop-opacity:0"/></linearGradient><linearGradient id="linearGradient9766"><stop id="stop9768" offset="0" style="stop-color:#6194cb;stop-opacity:1"/><stop id="stop9770" offset="1" style="stop-color:#729fcf;stop-opacity:1"/></linearGradient><linearGradient id="linearGradient148"><stop id="stop149" offset="0" style="stop-color:#fff;stop-opacity:.13402061"/><stop id="stop150" offset="1" style="stop-color:#fff;stop-opacity:.05154639"/></linearGradient><linearGradient id="linearGradient335"><stop id="stop336" offset="0" style="stop-color:#fff;stop-opacity:1"/><stop id="stop337" offset="1" style="stop-color:#fff;stop-opacity:0"/></linearGradient><linearGradient id="linearGradient1789"><stop id="stop1790" offset="0" style="stop-color:#a0a0a0;stop-opacity:1"/><stop id="stop1791" offset="1" style="stop-color:#a8a8a8;stop-opacity:1"/></linearGradient><linearGradient id="linearGradient137"><stop id="stop138" offset="0" style="stop-color:#fff;stop-opacity:.70059878"/><stop id="stop139" offset="1" style="stop-color:#fff;stop-opacity:0"/></linearGradient><linearGradient id="linearGradient155" x1="19.116" x2="19.427" y1="28.946" y2="51.913" gradientTransform="scale(1.421537,0.703464)" gradientUnits="userSpaceOnUse" xlink:href="#linearGradient335"/><linearGradient id="linearGradient156" x1="14.899" x2="22.715" y1="27.06" y2="41.837" gradientTransform="matrix(1.535299,0,0,0.651339,3.451418,2.448)" gradientUnits="userSpaceOnUse" xlink:href="#linearGradient148"/><linearGradient id="linearGradient158" x1="5.266" x2="8.212" y1="18.726" y2="52.626" gradientTransform="matrix(1.462696,0,0.06907908,0.683669,0,0)" gradientUnits="userSpaceOnUse" xlink:href="#linearGradient137"/><radialGradient id="radialGradient159" cx="26.107" cy="38.195" r="32.26" fx="26.107" fy="38.195" gradientTransform="matrix(1.015635,0,0.103105,1.000512,0,-0.08369458)" gradientUnits="userSpaceOnUse" xlink:href="#linearGradient1789"/><linearGradient id="linearGradient13162" x1="22.176" x2="22.065" y1="36.988" y2="32.05" gradientTransform="matrix(1,0,0,1.022118,52.05694,-1.323026)" gradientUnits="userSpaceOnUse" xlink:href="#linearGradient9766"/><linearGradient id="linearGradient13848" x1="22.25" x2="19.75" y1="37.625" y2="14.875" gradientUnits="userSpaceOnUse" xlink:href="#linearGradient13842"/></defs><g id="layer3" transform="translate(-0.20338983,2.0338983)"><path id="path2375" d="m 4.6200285,38.651015 c 0.041808,0.420455 0.4973856,0.840909 0.9111553,0.840909 l 31.1361622,0 c 0.41377,0 0.785732,-0.420454 0.743924,-0.840909 L 34.714653,11.531728 C 34.672845,11.111274 34.217267,10.69082 33.803498,10.69082 l -12.723416,0 c -0.590546,0 -1.209083,-0.379552 -1.402861,-0.9603351 L 18.574219,6.4246085 C 18.404967,5.9173308 18.027069,5.6888138 17.259746,5.6888138 l -14.9373272,0 c -0.4137696,0 -0.7857312,0.4204542 -0.7439232,0.8409082 l 3.0415329,32.121293 z" style="fill:url(#radialGradient159);fill-opacity:1;fill-rule:nonzero;stroke:#5a5a5a;stroke-width:1;stroke-linecap:round;stroke-linejoin:round;stroke-miterlimit:4;stroke-opacity:1;stroke-dashoffset:0;marker:none;visibility:visible;display:inline;overflow:visible"/><path id="path13113" d="m 3.3386019,17.533487 31.1498591,0" style="opacity:.11363633;fill:#729fcf;fill-opacity:1;fill-rule:nonzero;stroke:#000;stroke-width:1.00000036;stroke-linecap:round;stroke-linejoin:round;stroke-miterlimit:4;stroke-opacity:1;stroke-dasharray:none;stroke-dashoffset:0;marker:none;visibility:visible;display:inline;overflow:visible"/><path id="path13160" d="m 5.3301525,37.533487 29.9877545,0" style="opacity:.11363633;fill:#729fcf;fill-opacity:1;fill-rule:nonzero;stroke:#000;stroke-width:1.00000024;stroke-linecap:round;stroke-linejoin:round;stroke-miterlimit:4;stroke-opacity:1;stroke-dasharray:none;stroke-dashoffset:0;marker:none;visibility:visible;display:inline;overflow:visible"/><path id="path13139" d="m 5.3301525,35.533487 29.9877545,0" style="opacity:.11363633;fill:#729fcf;fill-opacity:1;fill-rule:nonzero;stroke:#000;stroke-width:1.00000024;stroke-linecap:round;stroke-linejoin:round;stroke-miterlimit:4;stroke-opacity:1;stroke-dasharray:none;stroke-dashoffset:0;marker:none;visibility:visible;display:inline;overflow:visible"/><g id="g5022" transform="matrix(0.02165152,0,0,0.01903841,42.41538,36.93372)" style="display:inline"><rect id="rect4173" width="1339.633" height="478.357" x="-1559.252" y="-150.697" style="opacity:.40206185;fill:url(#linearGradient5027);fill-opacity:1;fill-rule:nonzero;stroke:none;stroke-width:1;marker:none;visibility:visible;display:inline;overflow:visible"/><path id="path5058" d="m -219.61876,-150.68038 c 0,0 0,478.33079 0,478.33079 142.874166,0.90045 345.40022,-107.16966 345.40014,-239.196175 0,-132.026537 -159.436816,-239.134595 -345.40014,-239.134615 z" style="opacity:.40206185;fill:url(#radialGradient5029);fill-opacity:1;fill-rule:nonzero;stroke:none;stroke-width:1;marker:none;visibility:visible;display:inline;overflow:visible"/><path id="path5018" d="m -1559.2523,-150.68038 c 0,0 0,478.33079 0,478.33079 -142.8742,0.90045 -345.4002,-107.16966 -345.4002,-239.196175 0,-132.026537 159.4368,-239.134595 345.4002,-239.134615 z" style="opacity:.40206185;fill:url(#radialGradient5031);fill-opacity:1;fill-rule:nonzero;stroke:none;stroke-width:1;marker:none;visibility:visible;display:inline;overflow:visible"/></g><path id="path2380" d="m 6.1717518,38.418674 c 0.031356,0.310327 -0.1546248,0.517212 -0.475404,0.413769 l 0,0 C 5.3755686,38.729001 5.1477798,38.522116 5.1164238,38.211789 L 2.0868572,6.8445942 C 2.0555012,6.534267 2.2434512,6.3468711 2.5537784,6.3468711 L 17.303531,6.2554251 c 0.531284,-0.00329 0.739429,0.053306 0.879799,0.517212 0,0 1.085374,3.1127979 1.246234,3.6981049 L 17.873968,7.5537061 C 17.608788,7.0564434 17.275224,7.1399365 16.901178,7.1399365 l -13.1294005,0 c -0.3103272,0 -0.496308,0.2068848 -0.464952,0.517212 L 6.2856462,38.522116 6.1717518,38.418674 z" style="fill:url(#linearGradient158);fill-opacity:1;fill-rule:nonzero;stroke:none;stroke-width:1.17341149;marker:none;visibility:visible;display:block;overflow:visible"/><path id="path13145" d="m 2.3052333,7.533487 14.7837337,0" style="opacity:.11363633;fill:#729fcf;fill-opacity:1;fill-rule:nonzero;stroke:#000;stroke-width:.99999982;stroke-linecap:round;stroke-linejoin:round;stroke-miterlimit:4;stroke-opacity:1;stroke-dasharray:none;stroke-dashoffset:0;marker:none;visibility:visible;display:inline;overflow:visible"/><path id="path13115" d="m 2.7573333,11.533487 30.7388807,0" style="opacity:.11363633;fill:#729fcf;fill-opacity:1;fill-rule:nonzero;stroke:#000;stroke-width:1.00000012;stroke-linecap:round;stroke-linejoin:round;stroke-miterlimit:4;stroke-opacity:1;stroke-dasharray:none;stroke-dashoffset:0;marker:none;visibility:visible;display:inline;overflow:visible"/><g id="g2381" transform="matrix(1.034424,0,0.10452,1.034424,-10.03248,2.631914)" style="fill:#fff;fill-opacity:.5803109;fill-rule:nonzero;stroke:#000;stroke-miterlimit:4;display:block"><path id="path2382" d="m 41.785743,9.0363862 c 0.0096,-0.4745828 0.01519,-0.7245056 -0.423393,-0.7242032 l -12.55582,0.00866 c -0.3,0 -0.324614,-0.1432061 0,0 0.324614,0.1432061 1.247098,0.6582712 2.182697,0.7009947 0,0 10.796477,0.016463 10.796516,0.014551 z" style="stroke:none"/></g><path id="path13123" d="m 3.1628954,15.533487 30.8305566,0" style="opacity:.11363633;fill:#729fcf;fill-opacity:1;fill-rule:nonzero;stroke:#000;stroke-width:.99999994;stroke-linecap:round;stroke-linejoin:round;stroke-miterlimit:4;stroke-opacity:1;stroke-dasharray:none;stroke-dashoffset:0;marker:none;visibility:visible;display:inline;overflow:visible"/><path id="path13121" d="m 5.1594716,33.533487 29.9877544,0" style="opacity:.11363633;fill:#729fcf;fill-opacity:1;fill-rule:nonzero;stroke:#000;stroke-width:1.00000024;stroke-linecap:round;stroke-linejoin:round;stroke-miterlimit:4;stroke-opacity:1;stroke-dasharray:none;stroke-dashoffset:0;marker:none;visibility:visible;display:inline;overflow:visible"/><path id="path13119" d="m 4.8658086,31.533487 30.1087244,0" style="opacity:.11363633;fill:#729fcf;fill-opacity:1;fill-rule:nonzero;stroke:#000;stroke-width:1.00000036;stroke-linecap:round;stroke-linejoin:round;stroke-miterlimit:4;stroke-opacity:1;stroke-dasharray:none;stroke-dashoffset:0;marker:none;visibility:visible;display:inline;overflow:visible"/><path id="path13135" d="m 4.6336367,29.533487 30.1692103,0" style="opacity:.11363633;fill:#729fcf;fill-opacity:1;fill-rule:nonzero;stroke:#000;stroke-width:1.00000036;stroke-linecap:round;stroke-linejoin:round;stroke-miterlimit:4;stroke-opacity:1;stroke-dasharray:none;stroke-dashoffset:0;marker:none;visibility:visible;display:inline;overflow:visible"/><path id="path13137" d="m 4.4629557,27.533487 30.1692103,0" style="opacity:.11363633;fill:#729fcf;fill-opacity:1;fill-rule:nonzero;stroke:#000;stroke-width:1.00000036;stroke-linecap:round;stroke-linejoin:round;stroke-miterlimit:4;stroke-opacity:1;stroke-dasharray:none;stroke-dashoffset:0;marker:none;visibility:visible;display:inline;overflow:visible"/><path id="path13143" d="m 4.2556718,25.533487 30.2051212,0" style="opacity:.11363633;fill:#729fcf;fill-opacity:1;fill-rule:nonzero;stroke:#000;stroke-width:1;stroke-linecap:round;stroke-linejoin:round;stroke-miterlimit:4;stroke-opacity:1;stroke-dasharray:none;stroke-dashoffset:0;marker:none;visibility:visible;display:inline;overflow:visible"/><path id="path13133" d="m 4.0235198,23.533487 30.2655812,0" style="opacity:.11363633;fill:#729fcf;fill-opacity:1;fill-rule:nonzero;stroke:#000;stroke-width:1.00000024;stroke-linecap:round;stroke-linejoin:round;stroke-miterlimit:4;stroke-opacity:1;stroke-dasharray:none;stroke-dashoffset:0;marker:none;visibility:visible;display:inline;overflow:visible"/><path id="path13117" d="m 3.8528389,21.533487 30.2655811,0" style="opacity:.11363633;fill:#729fcf;fill-opacity:1;fill-rule:nonzero;stroke:#000;stroke-width:1.00000024;stroke-linecap:round;stroke-linejoin:round;stroke-miterlimit:4;stroke-opacity:1;stroke-dasharray:none;stroke-dashoffset:0;marker:none;visibility:visible;display:inline;overflow:visible"/><g id="g1853" transform="matrix(1.034424,0,0.10452,1.034424,-10.03248,2.631914)" style="fill:#fff;fill-opacity:.5803109;fill-rule:nonzero;stroke:#000;stroke-miterlimit:4;display:block"><path id="path1855" d="m 41.785743,9.0363862 c 0.0096,-0.4745828 0.01519,-0.7245056 -0.423393,-0.7242032 l -12.55582,0.00866 c -0.3,0 -0.324614,-0.1432061 0,0 0.324614,0.1432061 1.247098,0.6582712 2.182697,0.7009947 0,0 10.796477,0.016463 10.796516,0.014551 z" style="stroke:none"/></g><path id="path13127" d="m 2.9642313,13.533487 31.0265037,0" style="opacity:.11363633;fill:#729fcf;fill-opacity:1;fill-rule:nonzero;stroke:#000;stroke-width:1.00000036;stroke-linecap:round;stroke-linejoin:round;stroke-miterlimit:4;stroke-opacity:1;stroke-dasharray:none;stroke-dashoffset:0;marker:none;visibility:visible;display:inline;overflow:visible"/><path id="path13125" d="m 3.6514189,19.533487 30.2957961,0" style="opacity:.11363633;fill:#729fcf;fill-opacity:1;fill-rule:nonzero;stroke:#000;stroke-width:1.00000012;stroke-linecap:round;stroke-linejoin:round;stroke-miterlimit:4;stroke-opacity:1;stroke-dasharray:none;stroke-dashoffset:0;marker:none;visibility:visible;display:inline;overflow:visible"/><path id="path13147" d="m 2.5242572,9.5334871 15.2808158,0" style="opacity:.11363633;fill:#729fcf;fill-opacity:1;fill-rule:nonzero;stroke:#000;stroke-width:1.00000024;stroke-linecap:round;stroke-linejoin:round;stroke-miterlimit:4;stroke-opacity:1;stroke-dasharray:none;stroke-dashoffset:0;marker:none;visibility:visible;display:inline;overflow:visible"/><path id="path13840" d="M 34.375,14.125 37,38.75 6,38.875 c 0,0 -1.875,-24.75 -1.875,-24.75 0,0 30.375,0 30.25,0 z" style="opacity:.39204544;fill:url(#linearGradient13848);fill-opacity:1;fill-rule:nonzero;stroke:none;stroke-width:1;marker:none;visibility:visible;display:block;overflow:visible"/><path id="path8230" d="m 43.375,2.4944033 c 0.5,16.8787317 -9.075063,18.5284757 -6.012563,29.0002577 0,0 -31.487437,0.885937 -31.487437,0.885937 C 4,19.527986 14.25,11.166045 11.25,2.649254 L 43.375,2.4944033 z" style="fill:url(#linearGradient8236);fill-opacity:1;fill-rule:nonzero;stroke:url(#radialGradient8234);stroke-width:1;stroke-linecap:butt;stroke-linejoin:miter;stroke-miterlimit:4;stroke-opacity:1;stroke-dasharray:none;stroke-dashoffset:0;marker:none;visibility:visible;display:block;overflow:visible"/><path id="path8277" d="m 15.4375,6.5624999 23.5625,0" style="fill:none;stroke:#a1a1a1;stroke-width:1;stroke-linecap:butt;stroke-linejoin:miter;stroke-miterlimit:4;stroke-opacity:1;stroke-dasharray:none;stroke-dashoffset:0;marker:none;visibility:visible;display:block;overflow:visible"/><path id="path2401" d="m 5.7785654,39.065997 c 0.103442,0.211469 0.310326,0.422928 0.6206519,0.422928 l 33.3084527,0 c 0.206892,0 0.521164,-0.126305 0.708174,-0.264351 0.530402,-0.391535 0.65486,-0.612385 0.892782,-0.973467 2.448126,-3.71546 5.805141,-19.276893 5.805141,-19.276893 0.103442,-0.21146 -0.103441,-0.42292 -0.413767,-0.42292 l -34.923642,0 c -0.310326,0 -1.655965,16.10733 -4.8629988,19.287023 l -1.2382357,1.22768 0.1034419,0 z" style="fill:url(#linearGradient13162);fill-opacity:1;fill-rule:nonzero;stroke:#3465a4;stroke-width:.99999982;stroke-linecap:butt;stroke-linejoin:round;stroke-miterlimit:4;stroke-opacity:1;stroke-dasharray:none;stroke-dashoffset:0;marker:none;visibility:visible;display:block;overflow:visible"/><path id="path8279" d="m 15.356073,8.5624999 19.725347,0" style="fill:none;stroke:#a1a1a1;stroke-width:1;stroke-linecap:butt;stroke-linejoin:miter;stroke-miterlimit:4;stroke-opacity:1;stroke-dasharray:none;stroke-dashoffset:0;marker:none;visibility:visible;display:block;overflow:visible"/><path id="path323" d="m 13.134476,20.138641 c -0.772747,4.990757 -1.501301,9.009243 -2.71599,13.513864 2.386485,-0.707107 7.116116,-3.204505 17.116116,-3.204505 10,0 16.723573,-9.248699 17.651651,-10.353553 l -32.051777,0.04419 z" style="fill:url(#linearGradient156);fill-opacity:1;fill-rule:evenodd;stroke:none"/><path id="path8281" d="m 15.143007,10.5625 24.314824,0" style="fill:none;stroke:#a1a1a1;stroke-width:1.00000012;stroke-linecap:butt;stroke-linejoin:miter;stroke-miterlimit:4;stroke-opacity:1;stroke-dasharray:none;stroke-dashoffset:0;marker:none;visibility:visible;display:block;overflow:visible"/><path id="path324" d="m 45.820083,19.6875 -33.158471,0 c 0,0 -2.147748,16.019607 -4.7222722,18.240578 8.1210772,0 31.5711712,-0.04864 31.5909902,-0.04864 1.751659,0 4.907641,-12.636194 6.289753,-18.191942 z" style="opacity:.52272728;fill:none;stroke:url(#linearGradient155);stroke-width:1px;stroke-linecap:round;stroke-linejoin:miter;stroke-miterlimit:4;stroke-opacity:1;stroke-dashoffset:0;marker:none;visibility:visible;display:inline;overflow:visible"/><path id="path8283" d="m 14.398767,12.5625 23.853392,0" style="fill:none;stroke:#a1a1a1;stroke-width:1.00000024;stroke-linecap:butt;stroke-linejoin:miter;stroke-miterlimit:4;stroke-opacity:1;stroke-dasharray:none;stroke-dashoffset:0;marker:none;visibility:visible;display:block;overflow:visible"/><path id="path8285" d="m 13.629028,14.5625 23.346303,0" style="fill:none;stroke:#a1a1a1;stroke-width:1.00000048;stroke-linecap:butt;stroke-linejoin:miter;stroke-miterlimit:4;stroke-opacity:1;stroke-dasharray:none;stroke-dashoffset:0;marker:none;visibility:visible;display:block;overflow:visible"/><path id="path8287" d="m 12.520679,16.5625 18.646161,0" style="fill:none;stroke:#a1a1a1;stroke-width:1.00000024;stroke-linecap:butt;stroke-linejoin:miter;stroke-miterlimit:4;stroke-opacity:1;stroke-dasharray:none;stroke-dashoffset:0;marker:none;visibility:visible;display:block;overflow:visible"/><path id="path8289" d="M 6.375,31.75 C 5.1336344,19.511961 13.5625,12.6875 12,2.9999999 l 30.875,0 -30,0.625 C 14.125,13.1875 6.6786165,18.271447 6.375,31.75 z" style="fill:#fff;fill-opacity:1;fill-rule:nonzero;stroke:none;stroke-width:1;marker:none;visibility:visible;display:block;overflow:visible"/></g></svg>