<svg xmlns="http://www.w3.org/2000/svg" xmlns:svg="http://www.w3.org/2000/svg" xmlns:xlink="http://www.w3.org/1999/xlink" id="svg6361" width="48" height="48" version="1.1"><defs id="defs3"><linearGradient id="linearGradient2431"><stop style="stop-color:#fff;stop-opacity:1" id="stop2433" offset="0"/><stop style="stop-color:#b8b8b8;stop-opacity:1" id="stop2435" offset="1"/></linearGradient><linearGradient id="linearGradient21644"><stop style="stop-color:#000;stop-opacity:1" id="stop21646" offset="0"/><stop style="stop-color:#000;stop-opacity:0" id="stop21648" offset="1"/></linearGradient><radialGradient id="radialGradient21650" cx="25.125" cy="36.75" r="15.75" fx="25.125" fy="36.75" gradientTransform="matrix(1,0,0,0.595238,0,14.875)" gradientUnits="userSpaceOnUse" xlink:href="#linearGradient21644"/><linearGradient id="linearGradient2933"><stop id="stop2935" offset="0" style="stop-color:#9cbcde;stop-opacity:1"/><stop id="stop2937" offset="1" style="stop-color:#204a87"/></linearGradient><radialGradient id="radialGradient2207" cx="26.544" cy="28.459" r="22.376" fx="26.544" fy="28.459" gradientTransform="matrix(1.238342,0.00595485,-0.00650776,1.351272,-6.992513,-9.744842)" gradientUnits="userSpaceOnUse" xlink:href="#linearGradient2933"/><radialGradient id="radialGradient2437" cx="-19.516" cy="16.856" r="8.754" fx="-19.516" fy="16.856" gradientTransform="matrix(4.445991,0,0,6.8665,67.25071,-104.6679)" gradientUnits="userSpaceOnUse" xlink:href="#linearGradient2431"/></defs><metadata id="metadata4"/><g id="layer1"><path style="opacity:.63068183;color:#000;fill:url(#radialGradient21650);fill-opacity:1;fill-rule:evenodd;stroke:none;stroke-width:1;marker:none;visibility:visible;display:inline;overflow:visible" id="path21642" d="m 40.875,36.75 a 15.75,9.375 0 1 1 -31.5,0 15.75,9.375 0 1 1 31.5,0 z" transform="matrix(1.173803,0,0,0.6,-5.004403,20.325)"/><path style="fill:url(#radialGradient2207);fill-opacity:1;stroke:#204a87;stroke-width:1" id="path2093" d="m 45.785164,23.825787 a 21.876116,21.876116 0 1 1 -43.7522317,0 21.876116,21.876116 0 1 1 43.7522317,0 z" transform="matrix(0.938442,0,0,0.93868,1.564075,1.633906)"/><path id="path2209" d="m 45.785164,23.825787 a 21.876116,21.876116 0 1 1 -43.7522317,0 21.876116,21.876116 0 1 1 43.7522317,0 z" transform="matrix(0.855103,0,0,0.855213,3.555288,3.625019)" style="opacity:.96022728;fill:none;stroke:#fff;stroke-width:3.03077435;stroke-miterlimit:4;stroke-opacity:1;stroke-dasharray:none"/><path style="font-size:34.15322876px;font-style:normal;font-variant:normal;font-weight:700;font-stretch:normal;text-align:start;line-height:125%;writing-mode:lr-tb;text-anchor:start;fill:url(#radialGradient2437);fill-opacity:1;stroke:#fff;stroke-width:1.09947276px;stroke-linecap:butt;stroke-linejoin:miter;stroke-opacity:.78612713;font-family:Bitstream Vera Sans" id="path1554" d="m -20.25,5.875 c -1.059019,2.63e-5 -2.147637,0.1232356 -3.28125,0.34375 -1.132925,0.2204283 -2.380162,0.5375125 -3.75,1 a 0.13496364,0.13496364 0 0 0 -0.03125,0 0.13496364,0.13496364 0 0 0 -0.03125,0.03125 0.13496364,0.13496364 0 0 0 -0.03125,0.03125 0.13496364,0.13496364 0 0 0 0,0.03125 0.13496364,0.13496364 0 0 0 0,0.03125 l 0,5.15625 a 0.13496364,0.13496364 0 0 0 0,0.03125 0.13496364,0.13496364 0 0 0 0,0.03125 0.13496364,0.13496364 0 0 0 0.03125,0.03125 0.13496364,0.13496364 0 0 0 0.03125,0.03125 0.13496364,0.13496364 0 0 0 0.03125,0 0.13496364,0.13496364 0 0 0 0.03125,0 0.13496364,0.13496364 0 0 0 0.03125,0 0.13496364,0.13496364 0 0 0 0.03125,0 c 1.142438,-0.719043 2.233352,-1.267138 3.28125,-1.625 1.048141,-0.368756 2.043116,-0.562479 2.9375,-0.5625 0.949218,2.1e-5 1.644925,0.210545 2.15625,0.625 0.508723,0.40209 0.781238,0.98304 0.78125,1.71875 -10e-6,0.480657 -0.144188,0.95141 -0.4375,1.4375 -0.282991,0.487016 -0.740265,1.030495 -1.375,1.59375 L -20.9375,16.75 c -1.201459,1.08049 -1.989243,1.991022 -2.375,2.71875 -0.383113,0.711446 -0.562505,1.519324 -0.5625,2.4375 l 0,0.8125 a 0.13496364,0.13496364 0 0 0 0,0.03125 0.13496364,0.13496364 0 0 0 0,0.03125 0.13496364,0.13496364 0 0 0 0.03125,0.03125 0.13496364,0.13496364 0 0 0 0.03125,0.03125 0.13496364,0.13496364 0 0 0 0.03125,0 0.13496364,0.13496364 0 0 0 0.03125,0 l 6.09375,0 a 0.13496364,0.13496364 0 0 0 0.03125,0 0.13496364,0.13496364 0 0 0 0.03125,0 0.13496364,0.13496364 0 0 0 0.03125,-0.03125 0.13496364,0.13496364 0 0 0 0.03125,-0.03125 0.13496364,0.13496364 0 0 0 0,-0.03125 0.13496364,0.13496364 0 0 0 0,-0.03125 l 0,-0.75 c -1.1e-5,-0.468196 0.14837,-0.892849 0.375,-1.28125 0.222295,-0.391284 0.708073,-0.950359 1.46875,-1.625 l 1.0625,-0.9375 c 1.066588,-0.98231 1.830659,-1.884654 2.28125,-2.75 0.449269,-0.874046 0.687482,-1.87342 0.6875,-2.96875 -1.8e-5,-2.126265 -0.743769,-3.7340276 -2.21875,-4.84375 -1.475197,-1.1210252 -3.60624,-1.6874737 -6.375,-1.6875 z m -3.5625,19.15625 a 0.13496364,0.13496364 0 0 0 -0.03125,0.03125 0.13496364,0.13496364 0 0 0 -0.03125,0.03125 0.13496364,0.13496364 0 0 0 0,0.03125 0.13496364,0.13496364 0 0 0 0,0.03125 l 0,5.84375 a 0.13496364,0.13496364 0 0 0 0,0.03125 0.13496364,0.13496364 0 0 0 0,0.03125 0.13496364,0.13496364 0 0 0 0.03125,0.03125 0.13496364,0.13496364 0 0 0 0.03125,0.03125 0.13496364,0.13496364 0 0 0 0.03125,0 0.13496364,0.13496364 0 0 0 0.03125,0 l 6.09375,0 a 0.13496364,0.13496364 0 0 0 0.03125,0 0.13496364,0.13496364 0 0 0 0.03125,0 0.13496364,0.13496364 0 0 0 0.03125,-0.03125 0.13496364,0.13496364 0 0 0 0.03125,-0.03125 0.13496364,0.13496364 0 0 0 0,-0.03125 0.13496364,0.13496364 0 0 0 0,-0.03125 l 0,-5.84375 a 0.13496364,0.13496364 0 0 0 0,-0.03125 0.13496364,0.13496364 0 0 0 0,-0.03125 0.13496364,0.13496364 0 0 0 -0.03125,-0.03125 0.13496364,0.13496364 0 0 0 -0.03125,-0.03125 0.13496364,0.13496364 0 0 0 -0.03125,0 0.13496364,0.13496364 0 0 0 -0.03125,0 l -6.09375,0 a 0.13496364,0.13496364 0 0 0 -0.03125,0 0.13496364,0.13496364 0 0 0 -0.03125,0 z" transform="matrix(0.849895,0,0,0.835205,41.72981,8.548327)" xlink:href="#text2215"/></g></svg>